<svg width="312" height="51" viewBox="0 0 312 51" fill="none" xmlns="http://www.w3.org/2000/svg">
<path fill-rule="evenodd" clip-rule="evenodd" d="M42.9952 24.8409L0.851805 0L13.7034 11.5657L13.7023 11.5656C13.5351 11.5609 13.3679 11.5562 13.2006 11.5562C5.91143 11.5562 0 17.5681 0 24.9873C0 32.4066 5.91143 38.4184 13.2006 38.4184C13.6615 38.4184 14.1176 38.3948 14.5645 38.3476L1.24745 50.5556L42.9952 24.8409ZM3.37929 24.9921C3.37929 18.0876 8.88111 12.4913 15.663 12.4913C22.4448 12.4913 27.9466 18.0876 27.9466 24.9921C27.9466 31.8965 22.4448 37.4928 15.663 37.4928C8.88111 37.4928 3.37929 31.8965 3.37929 24.9921ZM122.119 16.6674L124.274 11.6992H139.565L137.41 16.6674H132.885L126.713 31.1328C125.494 33.9097 122.408 37.7066 113.647 37.7066H104.603C101.517 37.7066 94.2654 36.1718 97.2072 29.3807L102.662 16.6674H98.1381L100.293 11.6992H122.333L120.178 16.6674H115.728L111.134 27.4066C110.487 28.7951 109.482 32.6676 114.653 32.6676C119.779 32.6676 120.807 30.2269 121.455 28.6892L121.472 28.6487L126.639 16.6674H122.119ZM134.346 32.2992L132.195 37.2674H147.486L149.711 32.2992H145.186L149.781 21.6356L157.605 37.2674H168.232L177.206 16.6674H181.656L183.811 11.6992H168.52L166.365 16.6674H170.889L166.221 27.4066L158.541 11.6992H143.25L141.169 16.6674H145.619L138.87 32.2992H134.346ZM304.087 16.0342C304.087 13.8146 305.856 12.02 308.044 12.02C310.231 12.02 312 13.8146 312 16.0342C312 18.2539 310.231 20.0485 308.044 20.0485C305.856 20.0485 304.087 18.2539 304.087 16.0342ZM305.139 16.0342C305.139 18.0177 306.321 19.2173 308.044 19.2173C309.766 19.2173 310.948 18.0177 310.948 16.0342C310.948 14.0507 309.766 12.8512 308.044 12.8512C306.321 12.8512 305.139 14.0507 305.139 16.0342ZM188.249 11.6992L186.024 16.6674H190.549L183.799 32.2992H179.275L177.194 37.2674H210.075L215.53 24.7006H211.08L203.973 32.2992H196.865L203.47 16.6674H208.064L210.219 11.6992H188.249ZM8.51414 19.8809H19.9414L19.9367 19.8856C25.9459 19.8856 26.8535 22.875 26.2903 25.6613C25.4897 29.6283 21.8312 30.5162 18.7684 30.5162H5.93546L6.97811 27.4748H8.33727L9.72436 22.9222H7.61579L8.51414 19.8809ZM16.725 27.4701C18.0283 27.4701 19.4154 26.6295 19.7691 25.7747C20.2905 24.2965 19.825 23.0119 18.7172 22.9175H16.0314L14.5745 27.4701H16.725ZM247.285 11.33H236.514C224.02 11.2638 221.019 18.4853 219.563 21.9879C219.463 22.229 219.37 22.4526 219.282 22.6549C211.858 38.0354 222.58 37.7998 226.396 37.7159C226.64 37.7106 226.856 37.7058 227.037 37.7058H237.519C244.557 37.7058 251.879 36.3929 256.543 25.5073C260.974 15.1648 260.634 11.3348 247.28 11.3348L247.285 11.33ZM244.701 21.9276L242.044 28.2087C241.252 30.1071 239.819 32.6668 235.727 32.6668H232.785C231.063 32.6668 228.694 31.0611 230.346 27.1886L233.363 20.1046C234.079 18.4234 236.304 16.2321 238.604 16.2321H242.267C246.573 16.2321 245.642 19.8118 244.706 21.9323L244.701 21.9276ZM266.045 11.6956H298.711V11.6909C300.652 11.6909 304.027 13.0085 301.728 18.4868L300.722 20.9C300.678 21.0012 300.632 21.1087 300.584 21.2216C299.697 23.3118 298.022 27.2566 290.598 27.2566H276.816L274.735 32.2957H279.185L277.03 37.2639H255.06L257.141 32.2957H261.665L268.34 16.6638H263.89L266.045 11.6956ZM284.626 22.3168C286.781 22.3168 287.424 21.5139 288.215 19.6155H288.22C289.006 17.717 287.931 16.763 285.92 16.6922H281.396L279.027 22.3168H284.626ZM82.9138 11.6956H58.7933L56.6382 16.6638H61.1625L54.4133 32.2957H49.9634L47.8083 37.2639H73.2926C84.9944 37.2639 87.5778 36.3854 92.2464 25.4998C95.6909 17.4619 96.2681 11.6909 82.9138 11.6909V11.6956ZM80.391 21.9248L77.7332 28.2059C77.6401 28.4292 77.554 28.6566 77.4679 28.884C76.8224 30.5896 76.1766 32.2957 72.5665 32.2957H67.4696L74.2189 16.6638H77.9519C82.2575 16.6638 81.3266 19.8044 80.391 21.9248ZM309.845 15.1431C309.845 15.9554 309.347 16.2718 308.76 16.3332V16.3379L309.924 18.2695H308.965L307.89 16.3757H307.391V18.2695H306.493V13.835H308.146C309.23 13.835 309.845 14.1797 309.845 15.1431ZM307.391 14.4914V15.7193H308.132C308.611 15.7193 308.984 15.5209 308.984 14.9778C308.984 14.5622 308.486 14.4914 308.085 14.4914H307.391Z" fill="white"/>
</svg>
